<?xml version="1.0" encoding="iso-8859-1"?>
<!-- Generator: Adobe Illustrator 22.1.0, SVG Export Plug-In . SVG Version: 6.00 Build 0)  -->
<svg version="1.1" id="Layer_1" xmlns="http://www.w3.org/2000/svg" xmlns:xlink="http://www.w3.org/1999/xlink" x="0px" y="0px"
	 viewBox="0 0 297.638 297.638" style="enable-background:new 0 0 297.638 297.638;" xml:space="preserve">
<g>
	<path style="fill:#575756;" d="M253.103,132.534c-2.801-2.719-5.771-5.983-8.697-10.654c-3.656-5.831-6.13-13.214-3.324-12.163
		c1.967,0.741,7.994,1.94,9.733,2.316c3.602,0.795,4.703,0.398,1.357-1.782c-2.719-1.771-9.45-5.559-14.888-8.959
		c2.376-1.373,4.622-3.074,5.449-4.992c0.415-0.959,1.973-2.539,2.769-2.986c2.752-1.521,5.275-2.191,7.149-2.834
		c2.855-0.981,2.905-1.52,0-1.52c-1.58,0-4.038,0.327-5.667,0.212c-1.679-0.12-0.915-1.318-0.463-2.599
		c9.406-26.43,3.997-53.108,3.829-66.276c-2.818-18.637-2.818-22.629-21.744-13.392c-8.643,4.335-28.1,19.97-42.934,39.069
		c-3.281,4.224-6.027,5.712-9.7,4.998c-6.686-1.303-14.604-2.055-24.065-2.055c-9.455,0-17.373,0.752-24.059,2.055
		c-3.673,0.714-6.419-0.774-9.7-4.998c-14.833-19.099-34.29-34.734-42.934-39.069C56.177-2.203,55.919,2.126,53.469,20.296
		c-0.169,13.169-5.577,39.846,3.829,66.276c0.452,1.281,1.215,2.479-0.464,2.599c-1.629,0.115-4.087-0.212-5.667-0.212
		c-2.91,0-2.855,0.539,0,1.52c1.875,0.643,4.398,1.313,7.149,2.834c0.796,0.447,2.355,2.027,2.769,2.986
		c0.829,1.918,3.073,3.619,5.449,4.992c-5.439,3.4-12.169,7.188-14.888,8.959c-3.345,2.18-2.245,2.578,1.357,1.782
		c1.739-0.376,7.766-1.576,9.727-2.316c2.812-1.052,0.339,6.332-3.319,12.163c-2.926,4.671-5.896,7.935-8.697,10.654
		c-5.771,5.596-6.011,7.275,1.27,4.239c7.068-2.942,9.776-4.817,9.144-2.665c-1.325,4.529-4.594,6.333-8.382,12.344
		c-1.536,2.435-0.926,2.866,0.682,2.201c3.585-1.476,4.877-2.25,7.296-2.457c3.706-0.322-4.49,4.195-7.46,10.975
		c-1.128,2.572-0.691,4.43,1.226,2.769c4.011-3.466,8.017-3.624,9.079-3.646c1.804-0.032,3.129,2.829,2.943,6.474
		c-0.392,7.635-2.355,17.286-3.106,28.185c-0.491,7.084,1.013,16.359,0.076,29.21c-0.256,3.569,0.932,3.455,2.954,0.714
		c2.027-2.747,5.558-7.831,6.899-5.788c1.33,2.039-2.163,14.475,0.823,23.569c1.182,3.591,2.196,2.186,2.343-0.398
		c0.605-10.785,6.654-22.196,9.782-25.743c0,0,10.975-5.766,36.789-7.603c9.313-2.942,28.833-25.563,28.833-25.563
		s19.525,22.621,28.839,25.563c25.814,1.837,36.79,7.603,36.79,7.603c3.128,3.547,9.176,14.958,9.782,25.743
		c0.147,2.583,1.16,3.989,2.338,0.398c2.992-9.095-0.502-21.531,0.828-23.569c1.341-2.043,4.873,3.041,6.9,5.788
		c2.022,2.741,3.209,2.855,2.948-0.714c-0.932-12.851,0.572-22.126,0.082-29.21c-0.752-10.899-2.714-20.55-3.106-28.185
		c-0.185-3.645,1.138-6.506,2.942-6.474c1.062,0.022,5.068,0.18,9.079,3.646c1.919,1.662,2.354-0.196,1.226-2.769
		c-2.97-6.78-11.166-11.297-7.46-10.975c2.414,0.207,3.711,0.981,7.296,2.457c1.608,0.665,2.219,0.235,0.682-2.201
		c-3.793-6.011-7.057-7.815-8.381-12.344c-0.632-2.152,2.076-0.278,9.144,2.665C259.108,139.809,258.874,138.13,253.103,132.534z"/>
	<path style="fill:#F6F6F6;" d="M211.698,198.946c-9.466-5.973-17.286-8.157-30.779-10.686
		c-19.095-3.586-29.014-27.934-29.014-27.934s-9.913,24.348-29.007,27.934c-13.494,2.529-21.313,4.713-30.779,10.686
		c-10.321,6.518-16.147,18.79-12.038,34.235c2.594,9.754,5.973,17.378,11.291,24.893c5.537,7.836,13.951,13.264,18.36,20.898
		c2.278,3.946,4.135,2.049,3.525-0.949c-1.248-6.119-7.019-17.018-4.774-17.416c1.825-0.332,3.509,3.493,7.269,9.579
		c4.311,6.981,9.75,14.077,15.591,17.929c1.515,0.997,3.858,1.499,2.67-1.902c-3.548-10.147-1.809-12.294,0.719-9.243
		c3.384,4.076,7.079,6.594,9.243,9.243c4.621,5.656,3.455,8.833,4.234,9.133c3.553,1.378,12.731-6.082,20.419-18.355
		c2.104-3.356,5.488-0.196,1.166,9.221c-1.493,3.275,1.161,2.898,2.675,1.902c5.843-3.852,11.28-10.948,15.591-17.929
		c3.76-6.086,5.444-9.912,7.275-9.579c2.24,0.398-3.531,11.297-4.779,17.416c-0.61,2.998,1.249,4.894,3.526,0.949
		c4.409-7.635,12.817-13.063,18.359-20.898c5.319-7.515,8.697-15.139,11.291-24.893
		C227.845,217.736,222.019,205.464,211.698,198.946z"/>
	<g>
		<defs>
			<path id="SVGID_15_" d="M253.103,132.534c-2.801-2.719-5.771-5.983-8.697-10.654c-3.656-5.831-6.13-13.214-3.324-12.163
				c1.967,0.741,7.994,1.94,9.733,2.316c3.602,0.795,4.703,0.398,1.357-1.782c-2.719-1.771-9.45-5.559-14.888-8.959
				c2.376-1.373,4.622-3.074,5.449-4.992c0.415-0.959,1.973-2.539,2.769-2.986c2.752-1.521,5.275-2.191,7.149-2.834
				c2.855-0.981,2.905-1.52,0-1.52c-1.58,0-4.038,0.327-5.667,0.212c-1.679-0.12-0.915-1.318-0.463-2.599
				c9.406-26.43,3.997-47.8,3.829-60.969c-0.112-8.661-2.243-18.821-5.774-20.862c-3.896-2.252-14.134,2.943-20.608,6.19
				c-8.643,4.335-23.461,15.943-38.295,35.042c-3.281,4.224-6.027,5.712-9.7,4.998c-6.686-1.303-14.604-2.055-24.065-2.055
				c-9.455,0-17.373,0.752-24.059,2.055c-3.673,0.714-6.419-0.774-9.7-4.998c-14.833-19.099-34.29-34.734-42.934-39.069
				c-18.906-8.592-19.55-4.778-21.743,13.392c-0.169,13.169-5.577,39.846,3.829,66.276c0.452,1.281,1.215,2.479-0.464,2.599
				c-1.629,0.115-4.087-0.212-5.667-0.212c-2.91,0-2.855,0.539,0,1.52c1.875,0.643,4.398,1.313,7.149,2.834
				c0.796,0.447,2.355,2.027,2.769,2.986c0.829,1.918,3.073,3.619,5.449,4.992c-5.439,3.4-12.169,7.188-14.888,8.959
				c-3.345,2.18-2.245,2.578,1.357,1.782c1.739-0.376,7.766-1.576,9.727-2.316c2.812-1.052,0.339,6.332-3.319,12.163
				c-2.926,4.671-5.896,7.935-8.697,10.654c-5.771,5.596-6.011,7.275,1.27,4.239c7.068-2.942,9.776-4.817,9.144-2.665
				c-1.325,4.529-4.594,6.333-8.382,12.344c-1.536,2.435-0.926,2.866,0.682,2.201c3.585-1.476,4.877-2.25,7.296-2.457
				c3.706-0.322-4.49,4.195-7.46,10.975c-1.128,2.572-0.691,4.43,1.226,2.769c4.011-3.466,8.017-3.624,9.079-3.646
				c1.804-0.032,3.129,2.829,2.943,6.474c-0.392,7.635-2.355,17.286-3.106,28.185c-0.491,7.084,1.013,16.359,0.076,29.21
				c-0.256,3.569,0.932,3.455,2.954,0.714c2.027-2.747,5.558-7.831,6.899-5.788c1.33,2.039-2.163,14.475,0.823,23.569
				c1.182,3.591,2.196,2.186,2.343-0.398c0.218-3.929,1.166-7.929,2.425-11.613c0.191,2.108,0.556,4.283,1.155,6.534
				c2.594,9.754,5.973,17.378,11.291,24.893c5.537,7.836,13.951,13.264,18.36,20.898c2.278,3.946,4.135,2.049,3.525-0.949
				c-1.248-6.119-7.019-17.018-4.774-17.416c1.825-0.332,3.509,3.493,7.269,9.579c4.311,6.981,9.75,14.077,15.591,17.929
				c1.515,0.997,3.858,1.499,2.67-1.902c-3.548-10.147-1.809-12.294,0.719-9.243c3.384,4.076,7.079,6.594,9.243,9.243
				c4.621,5.656,3.455,8.833,4.234,9.133c3.553,1.378,12.731-6.082,20.419-18.355c2.104-3.356,5.488-0.196,1.166,9.221
				c-1.493,3.275,1.161,2.898,2.675,1.902c5.843-3.852,11.28-10.948,15.591-17.929c3.76-6.086,5.444-9.912,7.275-9.579
				c2.24,0.398-3.531,11.297-4.779,17.416c-0.61,2.998,1.249,4.894,3.526,0.949c4.409-7.635,12.817-13.063,18.359-20.898
				c5.319-7.515,8.697-15.139,11.291-24.893c0.6-2.251,0.965-4.426,1.155-6.534c1.259,3.684,2.207,7.683,2.426,11.613
				c0.147,2.583,1.16,3.989,2.338,0.398c2.992-9.095-0.502-21.531,0.828-23.569c1.341-2.043,4.873,3.041,6.9,5.788
				c2.022,2.741,3.209,2.855,2.948-0.714c-0.932-12.851,0.572-22.126,0.082-29.21c-0.752-10.899-2.714-20.55-3.106-28.185
				c-0.185-3.645,1.138-6.506,2.942-6.474c1.062,0.022,5.068,0.18,9.079,3.646c1.919,1.662,2.354-0.196,1.226-2.769
				c-2.97-6.78-11.166-11.297-7.46-10.975c2.414,0.207,3.711,0.981,7.296,2.457c1.608,0.665,2.219,0.235,0.682-2.201
				c-3.793-6.011-7.057-7.815-8.381-12.344c-0.632-2.152,2.076-0.278,9.144,2.665C259.108,139.809,258.874,138.13,253.103,132.534z"
				/>
		</defs>
		<clipPath id="SVGID_19_">
			<use xlink:href="#SVGID_15_"  style="overflow:visible;"/>
		</clipPath>
		<polygon style="opacity:0.3;clip-path:url(#SVGID_19_);fill:#241916;" points="124.811,220.129 219.42,317.648 301.751,181.622 
			202.199,79.008 		"/>
	</g>
	<g>
		<path style="fill:#888988;" d="M103.852,47.102C90.109,24.738,74.46,14.763,68.449,13.392c-6.006-1.381-8.06,0.349-8.196,7.948
			c-0.24,13.414-1.998,47.843,5.959,60.513c5.052,8.049,11.351,3.596,17.357-3.978c6.011-7.564,17.449-15.695,19.536-19.286
			C105.275,54.862,106.245,51.003,103.852,47.102z"/>
		<path style="fill:#888988;" d="M199.971,47.102c13.738-22.364,29.392-32.339,35.403-33.71c6.005-1.381,8.054,0.349,8.19,7.948
			c0.24,13.414,1.997,47.843-5.96,60.513c-5.052,8.049-11.346,3.596-17.357-3.978c-6.005-7.564-17.444-15.695-19.536-19.286
			C198.543,54.862,197.573,51.003,199.971,47.102z"/>
	</g>
	<g>
		<defs>
			<path id="SVGID_14_" d="M206.859,69.657c-12.381-19.668-42.512-20.741-54.953-20.741c-12.441,0-42.566,1.073-54.948,20.741
				c-11.754,18.659-15.901,33.863-7.607,63.59c8.3,29.721,17.624,36.266,28.343,68.429c5.532,16.588,16.932,24.343,34.212,24.343
				c17.281,0,28.687-7.755,34.218-24.343c10.719-32.163,20.043-38.708,28.343-68.429C222.76,103.52,218.613,88.317,206.859,69.657z"
				/>
		</defs>
		<use xlink:href="#SVGID_14_"  style="overflow:visible;fill:#575756;"/>
		<clipPath id="SVGID_20_">
			<use xlink:href="#SVGID_14_"  style="overflow:visible;"/>
		</clipPath>
		<polygon style="opacity:0.2;clip-path:url(#SVGID_20_);fill:#241916;" points="165.535,137.868 216.259,188.587 163.312,245.594 
			131.601,224.281 		"/>
	</g>
	<g>
		<defs>
			<path id="SVGID_13_" d="M184.756,187.301c-2.229-12.387-10.915-28.016-15.117-38.082c-9.117-21.847-7.755-32.697-3.357-50.048
				c8.283-32.659,4.637-45.274-14.376-45.274c-19.002,0-22.648,12.615-14.371,45.274c4.398,17.352,5.76,28.201-3.351,50.048
				c-4.202,10.066-12.888,25.695-15.111,38.082c-3.826,21.259,1.744,33.209,12.528,36.98c8.441,2.949,17.635-0.419,20.305-0.419
				c2.675,0,11.869,3.368,20.31,0.419C183.001,220.51,188.57,208.56,184.756,187.301z"/>
		</defs>
		<use xlink:href="#SVGID_13_"  style="overflow:visible;fill:#F6F6F6;"/>
		<clipPath id="SVGID_21_">
			<use xlink:href="#SVGID_13_"  style="overflow:visible;"/>
		</clipPath>
		<polygon style="opacity:0.15;clip-path:url(#SVGID_21_);fill:#241916;" points="168.374,186.952 137.487,209.557 174.799,248.019 
			194.64,214.02 		"/>
	</g>
	<path style="fill:#010202;" d="M151.906,181.797c-12.19,0-19.689,4.354-19.689,14.114c0,11.705,7.831,18.762,19.689,18.762
		c11.864,0,19.695-7.057,19.695-18.762C171.6,186.151,164.102,181.797,151.906,181.797z"/>
	<g>
		<g>
			<path style="fill:#888988;" d="M125.802,123.536c0,7.423-5.83,13.433-13.035,13.433c-7.193,0-13.024-6.01-13.024-13.433
				c0-7.422,5.831-13.433,13.024-13.433C119.972,110.104,125.802,116.115,125.802,123.536z"/>
		</g>
		<g>
			<path style="fill:#010202;" d="M122.993,123.536c0,5.822-4.573,10.537-10.225,10.537c-5.642,0-10.216-4.714-10.216-10.537
				c0-5.822,4.574-10.537,10.216-10.537C118.42,113,122.993,117.715,122.993,123.536z"/>
		</g>
		<g>
			<path style="fill:#FFFFFF;" d="M120.325,120.388c0,1.664-1.307,3.011-2.921,3.011c-1.612,0-2.919-1.347-2.919-3.011
				c0-1.663,1.307-3.01,2.919-3.01C119.019,117.378,120.325,118.725,120.325,120.388z"/>
		</g>
	</g>
	<g>
		<g>
			<path style="fill:#888988;" d="M204.095,123.536c0,7.423-5.83,13.433-13.035,13.433c-7.193,0-13.024-6.01-13.024-13.433
				c0-7.422,5.831-13.433,13.024-13.433C198.265,110.104,204.095,116.115,204.095,123.536z"/>
		</g>
		<g>
			<path style="fill:#010202;" d="M201.286,123.536c0,5.822-4.573,10.537-10.225,10.537c-5.643,0-10.216-4.714-10.216-10.537
				c0-5.822,4.574-10.537,10.216-10.537C196.713,113,201.286,117.715,201.286,123.536z"/>
		</g>
		<g>
			<path style="fill:#FFFFFF;" d="M198.618,120.388c0,1.664-1.307,3.011-2.921,3.011c-1.612,0-2.919-1.347-2.919-3.011
				c0-1.663,1.307-3.01,2.919-3.01C197.311,117.378,198.618,118.725,198.618,120.388z"/>
		</g>
	</g>
</g>
</svg>
